<?xml version="1.0" encoding="UTF-8"?>
<svg version="1.1" viewBox="0 0 2048 1890" width="1280" height="1280" xmlns="http://www.w3.org/2000/svg">
<path transform="translate(1012,420)" d="m0 0h44l21 3 27 9 19 9 16 10 9 7 11 9 7 6 7 8 8 9 10 14 9 16 8 17 8 24 3 16 2 30h45l10 3 10 6 10 11 7 12 4 10 4 30 7 49 4 36 7 48v10l-5-1-14-5-20-6-39-8-18-2h-52l-21 3-31 8-20 8-20 11-12 9-11 9-11 12-9 12-10 18-8 19-3 12-3 29v15l3 29 4 15 9 20 8 12 9 10 5 5 10 9 10 7 16 9 19 9 27 10 33 10 25 6 24 6 14 4 30 10 20 9 12 8 10 9 7 10 3 10 1 7v21l-3 14-5 9-7 9-10 9-15 8-13 5-23 4-23 1-29-2-19-3-16-5-20-7-23-11-17-10-17-12-12-9-11-9h-3l-9 11-9 10-8 10-12 14-9 11-6 7 1 5 10 9 15 11 24 16v2h-334l-9-1-8-7-7-9-5-10-3-14-1-8v-17l5-48 7-49 4-35 6-41 4-35 6-42 5-43 5-34 4-37 6-41 5-43 5-33 5-45 6-40 3-25 5-12 8-13 11-11 12-6 4-1h47v-13l2-22 4-16 8-23 11-22 10-15 11-13 7-8 7-7h2v-2l14-11 18-12 17-9 28-10zm13 46-19 3-22 6-21 10-16 12-10 9-9 9-13 18-11 21-4 14-4 20-1 7v12l276 1 3-2-2-20-6-28-10-21-11-16-12-14-12-11-12-8-10-6-18-8-23-6-14-2zm145 188-10 11-4 9-3 14 1 10 4 13 8 10 6 5 12 5 8 2h9l13-4 8-4 5-4 7-10 3-7 1-6v-17l-3-11-9-13-4-3h-2v22h-45l-1-1v-19l-1-2zm-275 0v22h-45l-1-5v-14l-1-2-5 2-9 12-4 9-1 5v13l2 9 6 10 8 9 12 6 12 3 13-1 12-5 6-4 8-8 4-8 3-12v-11l-4-14-4-6-8-9z" fill="#FE1311"/>
<path transform="translate(1193,882)" d="m0 0h23l22 3 25 6 16 6 12 5 17 8 20 12 14 10 3 7 4 28 4 35 6 43 3 29v5l-5-2-20-12-18-8-29-11-13-4-25-7-26-6-25-7-33-11-23-11-13-10-8-9-7-14-1-5v-27l3-10 10-16 11-10 16-9 13-4 15-3z" fill="#FE1311"/>
</svg>
